<svg xmlns="http://www.w3.org/2000/svg" width="295" height="125" viewBox="0 0 295 125" fill="none">
<g clip-path="url(#clip0_303_2623)">
<path d="M44.2245 53.0436H43.4512V51.1922H44.2245C48.6046 51.1922 50.1512 48.2144 50.1512 45.1417V2.78825C50.1512 1.24914 48.8868 0 47.3289 0H0V3.76971H2.59646V104.057H0V107.833H47.3515C48.9094 107.833 50.1737 106.584 50.1737 105.044L50.1512 57.2037C50.1512 53.9693 48.6046 53.0436 44.2245 53.0436ZM23.7689 10.7961H28.9223V46.6753H23.7689V10.7961ZM28.9957 97.0533H23.7689V57.4602H28.9957V97.0533Z" fill="#2657ff"/>
<path d="M55.4909 107.833H76.652V15.8094H55.4909V107.833Z" fill="#2657ff"/>
<path d="M55.4909 10.7906H76.652V6.55496e-05H55.4909V10.7906Z" fill="#2657ff"/>
<path d="M183.513 0.055807H139.65C138.047 0.055807 136.754 1.3384 136.754 2.91655V104.916C136.754 106.5 138.047 107.777 139.65 107.777H162.51C165.784 107.777 166.721 106.227 166.721 101.838V101.063H168.589V101.838C168.589 106.227 169.684 107.777 172.8 107.777H186.409V57.5328H164.158V69.143H166.738V92.9323H159.005V10.7961H164.158V52.4414H186.409V2.91655C186.409 1.3384 185.111 0.055807 183.513 0.055807Z" fill="#2657ff"/>
<path d="M191.636 107.944L239.179 108V62.7858L218.018 62.73V97.1593H212.791V57.5996H232.631V46.7868H212.791V10.8965H218.018V41.6174L239.179 41.6787V0.17289L191.636 0.111548V107.944Z" fill="#2657ff"/>
<path d="M285.989 51.1421C290.431 51.1421 291.994 50.0658 291.994 46.982V2.78831C291.994 1.2492 290.73 6.55496e-05 289.172 6.55496e-05H244.451V107.833H265.612V65.7804H270.839V107.833H292V57.1536C292 53.9192 290.431 52.9935 285.994 52.9935H285.21V51.1421H285.994H285.989ZM270.839 54.9955H265.612V10.785H270.839V54.9955Z" fill="#2657ff"/>
<path d="M128.638 0.055807H84.7744C83.1714 0.055807 81.8788 1.3384 81.8788 2.91655V104.916C81.8788 106.5 83.1714 107.777 84.7744 107.777H107.635C110.908 107.777 111.845 106.227 111.845 101.838V101.063H113.714V101.838C113.714 106.227 114.809 107.777 117.924 107.777H131.533V57.5328H109.283V69.143H111.862V92.9323H104.129V10.7961H109.283V52.4414H131.533V2.91655C131.533 1.3384 130.235 0.055807 128.638 0.055807Z" fill="#2657ff"/>
</g>
<defs fill="#2657ff">
<clipPath id="clip0_303_2623" fill="#2657ff">
<rect width="295" height="125" fill="white"/>
</clipPath>
</defs>
</svg>